# xmcd CD database file
#
# Track frame offsets:
#	150
#	17915
#	32737
#	49025
#	66667
#	84012
#	99354
#	116986
#	137971
#	155162
#	172204
#	185838
#
# Disc length: 2649 seconds
#
# Revision: 0
# Processed by: cddbd v1.5.2PL0 Copyright (c) Steve Scherf et al.
# Submitted via: CDex 1.70beta2
#
DISCID=b00a570c
DTITLE=Hindi Zahra - Handmade
DYEAR=2009
DGENRE=Jazz
TTITLE0=Beautiful Tango
TTITLE1=Oursoul
TTITLE2=Fascination
TTITLE3=Set Me Free
TTITLE4=Kiss and Thrills
TTITLE5=At The Same Time
TTITLE6=Imik Si Mik
TTITLE7=Stand Up
TTITLE8=Music
TTITLE9=Don't Forget
TTITLE10=Old Friends
TTITLE11=Try
EXTD=YEAR: 2009
EXTT0=
EXTT1=
EXTT2=
EXTT3=
EXTT4=
EXTT5=
EXTT6=
EXTT7=
EXTT8=
EXTT9=
EXTT10=
EXTT11=
PLAYORDER=
